<?xml version="1.0" ?><!DOCTYPE svg  PUBLIC '-//W3C//DTD SVG 1.1//EN'  'http://www.w3.org/Graphics/SVG/1.1/DTD/svg11.dtd'><svg enable-background="new 0 0 128 128" id="Слой_1" version="1.1" viewBox="0 0 128 128" xml:space="preserve" xmlns="http://www.w3.org/2000/svg" xmlns:xlink="http://www.w3.org/1999/xlink"><path d="M83.5,106.3c0-9,5.4-16.9,13.3-20.5c-0.1-0.4-0.2-0.9-0.2-1.4c0-3.4,2.7-6.1,6.1-6.1h6.3V14  c0-5.5-4.5-10-10-10H29c-5.5,0-10,4.5-10,10v100c0,5.5,4.5,10,10,10h63.1C86.9,119.9,83.5,113.5,83.5,106.3z" fill="#F3EEDC"/><g><g><path d="M83.5,106.3c0-9,5.4-16.9,13.3-20.5c-0.1-0.4-0.2-0.9-0.2-1.4c0-3.4,2.7-6.1,6.1-6.1h6.6    c2.5,0,4.7,1.6,5.6,3.8V47.6l-5.9-5.4v10.8L73.3,85.8l-3.5-3.2c-3.2-3-8.2-3-11.5,0l-3.5,3.2L19,53.1V42.2l-5.9,5.4v67.9    c0,4.7,3.8,8.5,8.5,8.5H29h63.1C86.9,119.9,83.5,113.5,83.5,106.3z" fill="#B0DCC1"/><path d="M83.5,105.9c0-0.3,0-0.5,0-0.8C83.5,105.4,83.5,105.7,83.5,105.9z" fill="#060808" opacity="0.1"/><path d="M83.5,106.5c0,0.1,0,0.2,0,0.4C83.5,106.7,83.5,106.6,83.5,106.5    C83.5,106.4,83.5,106.5,83.5,106.5z" fill="#060808" opacity="0.1"/><g><path d="M79,25.5H49c-0.8,0-1.5-0.7-1.5-1.5s0.7-1.5,1.5-1.5h30c0.8,0,1.5,0.7,1.5,1.5S79.8,25.5,79,25.5z" fill="#4A374F"/></g><g><path d="M89,35.5H39c-0.8,0-1.5-0.7-1.5-1.5s0.7-1.5,1.5-1.5h50c0.8,0,1.5,0.7,1.5,1.5S89.8,35.5,89,35.5z" fill="#4A374F"/></g><g><path d="M89,45.5H39c-0.8,0-1.5-0.7-1.5-1.5s0.7-1.5,1.5-1.5h50c0.8,0,1.5,0.7,1.5,1.5S89.8,45.5,89,45.5z" fill="#4A374F"/></g><g><path d="M89,55.5H39c-0.8,0-1.5-0.7-1.5-1.5s0.7-1.5,1.5-1.5h50c0.8,0,1.5,0.7,1.5,1.5S89.8,55.5,89,55.5z" fill="#4A374F"/></g><g><path d="M23.8,122.5h-2.2c-0.3,0-0.6,0-0.9-0.1c-0.1,0-0.2,0-0.2,0c-0.2,0-0.4-0.1-0.6-0.1c-0.1,0-0.2,0-0.2-0.1     c-0.3-0.1-0.5-0.2-0.8-0.3c0,0,0,0,0,0c-0.2-0.1-0.5-0.2-0.7-0.4c0,0,0,0-0.1,0l41.3-37.8c1.3-1.2,3-1.8,4.7-1.8s3.4,0.7,4.7,1.8     l16.2,14.8c0.4-1,0.8-1.9,1.3-2.9l-10.7-9.9L113.4,51V80c1.2,1.1,2,2.7,2,4.5c0,0.5-0.1,0.9-0.2,1.4c0.4,0.2,0.8,0.4,1.2,0.6     V47.6c0-0.2,0-0.3-0.1-0.5c0,0,0-0.1,0-0.1c-0.1-0.2-0.2-0.3-0.3-0.4c0,0,0,0,0,0c0,0,0,0,0,0c0,0,0,0-0.1-0.1l-5.4-5V14     c0-6.3-5.2-11.5-11.5-11.5H29c-6.3,0-11.5,5.2-11.5,11.5v27.6l-5.4,5c0,0,0,0-0.1,0.1c0,0,0,0,0,0c0,0,0,0,0,0     c-0.1,0.1-0.2,0.3-0.3,0.4c0,0,0,0,0,0.1c0,0.1-0.1,0.3-0.1,0.5v67.9c0,2.8,1.2,5.3,3,7.1c0,0,0,0,0,0c0.1,0.1,0.2,0.1,0.2,0.2     c0.1,0.1,0.3,0.3,0.4,0.4c0.1,0.1,0.2,0.2,0.4,0.3c0.1,0.1,0.3,0.2,0.4,0.3c0.1,0.1,0.3,0.2,0.4,0.3c0.1,0.1,0.2,0.1,0.4,0.2     c0.2,0.1,0.3,0.2,0.5,0.2c0.1,0.1,0.2,0.1,0.4,0.2c0.2,0.1,0.4,0.1,0.5,0.2c0.1,0,0.2,0.1,0.4,0.1c0.2,0.1,0.4,0.1,0.6,0.1     c0.1,0,0.2,0.1,0.4,0.1c0.2,0,0.4,0.1,0.6,0.1c0.1,0,0.2,0,0.3,0c0.3,0,0.7,0.1,1,0.1h72.7c-1.4-0.9-2.7-1.9-3.9-3H23.8z      M110.5,45.6l2.2,2l-2.2,2V45.6z M20.5,14c0-4.7,3.8-8.5,8.5-8.5h70c4.7,0,8.5,3.8,8.5,8.5v38.4L73.3,83.8l-2.5-2.3     c-1.8-1.7-4.2-2.6-6.7-2.6s-4.9,0.9-6.7,2.6l-2.5,2.3L20.5,52.4V14z M17.5,45.6v4l-2.2-2L17.5,45.6z M15.8,119.5     c-0.8-1.1-1.2-2.5-1.2-3.9V51l37.9,34.8L15.8,119.5z" fill="#4A374F"/></g></g></g><g><g><g><circle cx="106" cy="106.5" fill="#FBCD64" r="17.5"/></g></g><g><path d="M107.5,87.6v-2.9h2c0.8,0,1.5-0.7,1.5-1.5s-0.7-1.5-1.5-1.5h-7c-0.8,0-1.5,0.7-1.5,1.5s0.7,1.5,1.5,1.5h2    v2.9c-9.8,0.8-17.5,9-17.5,18.9c0,10.5,8.5,19,19,19s19-8.5,19-19C125,96.5,117.3,88.3,107.5,87.6z M106,122.5    c-8.8,0-16-7.2-16-16s7.2-16,16-16s16,7.2,16,16S114.8,122.5,106,122.5z" fill="#4A374F"/><path d="M106,93.3c-0.8,0-1.5,0.7-1.5,1.5v11.7c0,0.8,0.7,1.5,1.5,1.5s1.5-0.7,1.5-1.5V94.8    C107.5,94,106.8,93.3,106,93.3z" fill="#4A374F"/></g></g></svg>